<?xml version="1.0" encoding="UTF-8"?>
<svg version="1.1" xmlns="http://www.w3.org/2000/svg" width="512" height="512">
<path d="M0 0 C29.0237561 26.30593522 45.06271415 63.9982768 47.35595703 102.96142578 C47.33987346 107.87441951 46.63892671 112.64668448 45.79003906 117.4765625 C45.26747071 120.46795769 44.7938784 123.46571748 44.32080078 126.46533203 C43.78338612 129.86992521 43.24143432 133.27319664 42.67797852 136.67358398 C42.42189819 138.21985474 42.42189819 138.21985474 42.16064453 139.79736328 C42.0057959 140.72081543 41.85094727 141.64426758 41.69140625 142.59570312 C41.28576136 145.05824267 41.28576136 145.05824267 41.35595703 147.96142578 C42.48775391 148.44353516 43.61955078 148.92564453 44.78564453 149.42236328 C46.26752312 150.06013381 47.74928808 150.69816839 49.23095703 151.33642578 C49.97732422 151.65353516 50.72369141 151.97064453 51.49267578 152.29736328 C52.20810547 152.60673828 52.92353516 152.91611328 53.66064453 153.23486328 C54.3204834 153.51765137 54.98032227 153.80043945 55.66015625 154.09179688 C57.35595703 154.96142578 57.35595703 154.96142578 59.35595703 156.96142578 C59.85133391 163.85112134 58.63912188 170.45079712 57.49267578 177.23095703 C57.3000264 178.38891281 57.10737701 179.54686859 56.90888977 180.73991394 C56.5012048 183.17524956 56.09002128 185.61000181 55.67553711 188.04418945 C55.0429653 191.77682734 54.43045412 195.51241208 53.81884766 199.24853516 C53.41967547 201.61788138 53.01932583 203.9870296 52.61767578 206.35595703 C52.43629562 207.47468704 52.25491547 208.59341705 52.06803894 209.74604797 C51.88807877 210.7810997 51.70811859 211.81615143 51.52270508 212.88256836 C51.29287178 214.24869011 51.29287178 214.24869011 51.05839539 215.64241028 C50.27303331 218.23518845 49.49722594 219.3302506 47.35595703 220.96142578 C44.90405273 221.30200195 44.90405273 221.30200195 42.03173828 221.25439453 C41.00371094 221.24472656 39.97568359 221.23505859 38.91650391 221.22509766 C37.84464844 221.19996094 36.77279297 221.17482422 35.66845703 221.14892578 C34.585 221.13539063 33.50154297 221.12185547 32.38525391 221.10791016 C29.70832298 221.07253221 27.03238866 221.02316767 24.35595703 220.96142578 C24.30552246 222.01934326 24.25508789 223.07726074 24.203125 224.16723633 C23.6503215 235.1846525 22.81194962 246.15601142 21.73632812 257.13452148 C21.47687669 259.81609839 21.23490235 262.49894779 20.99267578 265.18212891 C20.8257742 266.90684188 20.65784498 268.6314558 20.48876953 270.35595703 C20.41989532 271.1486348 20.35102112 271.94131256 20.28005981 272.75801086 C19.66084247 278.75678567 18.22766947 282.32793129 13.56298828 286.39892578 C12.43678172 287.26007344 11.30491856 288.11385767 10.16845703 288.96142578 C8.92073822 289.92715448 7.67335667 290.89331903 6.42626953 291.85986328 C4.34663566 293.45401127 2.25874735 295.03331013 0.15185547 296.59130859 C-2.06811696 298.2347653 -4.26242748 299.90867483 -6.45654297 301.58642578 C-7.15610107 302.08787109 -7.85565918 302.58931641 -8.57641602 303.10595703 C-12.33667149 305.91999899 -12.33667149 305.91999899 -14.05688477 310.10791016 C-14.11525336 311.64740239 -14.17204276 313.18695527 -14.22729492 314.7265625 C-15.04102798 319.09030731 -18.56701868 321.47603292 -21.83154297 324.21142578 C-22.4921875 324.79666016 -23.15283203 325.38189453 -23.83349609 325.98486328 C-25.74900047 327.67156605 -27.68716798 329.32293775 -29.64404297 330.96142578 C-30.37512772 331.80540421 -31.10621246 332.64938263 -31.85945129 333.51893616 C-36.98463439 337.73475852 -43.94807473 336.73558112 -50.23974609 336.7512207 C-51.73516691 336.77274702 -53.23056036 336.79625146 -54.72592163 336.82157898 C-58.78010906 336.88273856 -62.83385989 336.91100217 -66.8884449 336.9294374 C-69.42708475 336.94190333 -71.96560919 336.96046596 -74.50419617 336.98095131 C-83.37734295 337.05115187 -92.25013465 337.09111689 -101.12353516 337.10766602 C-109.36684758 337.12397608 -117.60734704 337.21175681 -125.84973574 337.33205336 C-132.94648566 337.43198329 -140.04230458 337.47732349 -147.13975096 337.48201638 C-151.37010831 337.4859341 -155.59742679 337.51185162 -159.82704163 337.59447289 C-188.93706874 338.13053739 -188.93706874 338.13053739 -196.79701996 331.06150532 C-198.95017408 328.70723792 -200.8140045 326.2884188 -202.54318237 323.60891151 C-204.0818263 321.30626399 -205.97169619 319.44345519 -207.95654297 317.52392578 C-210.32163453 315.05160085 -210.63052725 314.10400017 -210.96435547 310.58251953 C-211.80915841 306.08175901 -213.82004956 304.24988104 -217.20654297 301.46142578 C-217.7522998 300.98785645 -218.29805664 300.51428711 -218.86035156 300.02636719 C-220.44300715 298.6566626 -222.04228511 297.30867921 -223.64404297 295.96142578 C-225.02147728 294.75586816 -226.39688331 293.54798359 -227.76904297 292.33642578 C-229.92486458 290.45629624 -232.08453893 288.58102747 -234.24951172 286.71142578 C-235.14283203 285.92767578 -236.03615234 285.14392578 -236.95654297 284.33642578 C-237.77767578 283.62228516 -238.59880859 282.90814453 -239.44482422 282.17236328 C-244.75122119 276.83769066 -245.39801909 271.64884078 -246.24951172 264.43798828 C-246.37844315 263.41845062 -246.50737457 262.39891296 -246.64021301 261.34848022 C-246.91021555 259.1957259 -247.17463377 257.04226479 -247.43383789 254.88818359 C-247.82946809 251.60365147 -248.24204429 248.32160079 -248.65771484 245.03955078 C-248.9184792 242.94332061 -249.17827678 240.84696991 -249.43701172 238.75048828 C-249.55884323 237.77423492 -249.68067474 236.79798157 -249.80619812 235.79214478 C-250.40185576 230.80695775 -250.7780782 225.98189117 -250.64404297 220.96142578 C-251.90861328 220.99623047 -253.17318359 221.03103516 -254.47607422 221.06689453 C-256.1362172 221.09503255 -257.79637452 221.12233269 -259.45654297 221.14892578 C-260.70661133 221.18663086 -260.70661133 221.18663086 -261.98193359 221.22509766 C-262.784375 221.23476563 -263.58681641 221.24443359 -264.41357422 221.25439453 C-265.15196533 221.27010498 -265.89035645 221.28581543 -266.65112305 221.30200195 C-269.2843205 220.8520068 -269.97928709 220.03365399 -271.64404297 217.96142578 C-272.34648132 215.59771729 -272.34648132 215.59771729 -272.81079102 212.77490234 C-272.99075119 211.71660217 -273.17071136 210.658302 -273.35612488 209.56793213 C-273.53750504 208.42419128 -273.71888519 207.28045044 -273.90576172 206.10205078 C-274.10128128 204.92431091 -274.29680084 203.74657104 -274.49824524 202.53314209 C-274.90976707 200.03914914 -275.31538831 197.54417652 -275.71557617 195.04833984 C-276.32721914 191.23835931 -276.95765223 187.43186281 -277.59130859 183.62548828 C-277.98891039 181.20119212 -278.38543012 178.77671818 -278.78076172 176.35205078 C-278.96821457 175.21640686 -279.15566742 174.08076294 -279.34880066 172.91070557 C-281.05259611 162.20941498 -281.05259611 162.20941498 -280.64404297 156.96142578 C-277.07400523 153.11612812 -271.45151011 151.79585403 -266.64404297 149.96142578 C-267.10554254 141.71935632 -267.89951256 133.68845997 -269.20654297 125.53735352 C-270.98434103 114.43306014 -272.54513153 104.13340729 -270.64404297 92.96142578 C-270.5302832 92.26388184 -270.41652344 91.56633789 -270.29931641 90.84765625 C-263.52513607 50.66169385 -243.29203821 12.14355023 -209.78076172 -12.00634766 C-189.49188661 -25.97791206 -166.79725174 -33.94272829 -142.64404297 -38.03857422 C-141.9758252 -38.15571777 -141.30760742 -38.27286133 -140.61914062 -38.39355469 C-91.77942914 -46.60057737 -37.27414396 -33.05840666 0 0 Z " fill="#343230" transform="translate(366.64404296875,108.03857421875)"/>
<path d="M0 0 C1.56331055 -0.0309375 1.56331055 -0.0309375 3.15820312 -0.0625 C12.51025279 -0.10946572 19.62425708 1.57756781 27.1875 7.25 C27.991875 7.78625 28.79625 8.3225 29.625 8.875 C38.2950772 16.9106813 43.53663486 27.69394401 45.1875 39.25 C65.9775 39.25 86.7675 39.25 108.1875 39.25 C109.5075 35.29 110.8275 31.33 112.1875 27.25 C117.62829078 15.91501921 125.3419874 6.89518644 137.37939453 2.43847656 C143.41985804 0.45059559 148.96867581 -0.29662379 155.3125 -0.25 C156.67338745 -0.24250732 156.67338745 -0.24250732 158.06176758 -0.23486328 C175.88129027 0.21927694 190.39068893 8.07110607 202.73242188 20.67431641 C212.99407169 31.78651237 224.31176131 49.51146692 226.54296875 64.6640625 C226.03873803 68.33220247 224.34278528 70.08816656 222 72.9375 C221.08276095 74.07165709 220.16888491 75.20853956 219.2578125 76.34765625 C218.76442383 76.96398926 218.27103516 77.58032227 217.76269531 78.21533203 C216.04518988 80.43382092 214.41990205 82.70212095 212.8046875 84.99609375 C211.95040161 86.20809448 211.95040161 86.20809448 211.07885742 87.44458008 C209.96036696 89.04001962 208.84831924 90.63999927 207.7434082 92.24487305 C202.94124096 99.04738517 198.74059092 101.46589398 190.5625 103.1875 C189.40754028 103.4357251 189.40754028 103.4357251 188.22924805 103.68896484 C181.18979718 105.14388982 174.10527497 106.29354061 167 107.375 C165.46448486 107.61271118 165.46448486 107.61271118 163.89794922 107.85522461 C143.98809101 110.7571588 124.12918379 111.56441587 104.03125 111.55078125 C101.58573333 111.55468447 99.14021733 111.55902236 96.69470215 111.56376648 C91.60878281 111.57115966 86.52293299 111.57098735 81.43701172 111.56567383 C74.98621421 111.55987577 68.5357035 111.57685283 62.08495331 111.6000185 C57.04683833 111.61489151 52.0087904 111.61560949 46.97065735 111.61250877 C44.59490896 111.61301477 42.21915608 111.61811317 39.84342957 111.62832069 C25.16001326 111.68371082 10.99470922 110.80855534 -3.52504826 108.5880537 C-6.55576844 108.14015521 -9.59411452 107.79744731 -12.640625 107.4765625 C-17.43943566 106.95778362 -22.21637997 106.33456395 -26.99365234 105.64501953 C-28.81621891 105.38961396 -30.64222037 105.15719932 -32.47119141 104.95263672 C-42.42887168 103.77923695 -48.6027219 101.47842761 -54.95678711 93.45996094 C-57.48662623 89.96835149 -59.85460204 86.39353523 -62.16845703 82.75585938 C-63.68160776 80.44950667 -65.27729302 78.29598927 -66.99609375 76.140625 C-74.52918172 66.66379878 -74.52918172 66.66379878 -74.125 61.625 C-73.73219129 60.15399909 -73.29096381 58.69541162 -72.8125 57.25 C-72.63847656 56.35152344 -72.46445313 55.45304687 -72.28515625 54.52734375 C-68.68279324 36.65679785 -58.04223074 22.40571162 -43.65234375 11.6328125 C-30.69540054 3.05411597 -15.24708015 0.07460345 0 0 Z " fill="#FEDC4C" transform="translate(177.8125,146.75)"/>
<path d="M0 0 C3.54441916 3.29066167 6.19863312 6.9239853 8.9375 10.875 C10.60193478 13.26746422 12.28789443 15.64141611 14 18 C14.39437256 18.56420654 14.78874512 19.12841309 15.19506836 19.7097168 C18.24850973 23.78654733 20.79135865 24.95151696 25.6875 26.0625 C29.13671875 26.84765625 29.13671875 26.84765625 32 28 C34.38754289 31.84542306 34.60773806 36.38185466 35.125 40.8125 C35.21136719 41.50537109 35.29773438 42.19824219 35.38671875 42.91210938 C35.59716081 44.60733706 35.79941672 46.30357755 36 48 C41.80091727 48.89153442 47.60424081 49.76347615 53.41113281 50.61523438 C55.55467586 50.93381452 57.69568733 51.26937599 59.8359375 51.609375 C73.7791254 53.64083284 87.93418266 53.66209072 102 54 C102.36670303 53.21528572 102.36670303 53.21528572 102.74081421 52.41471863 C106.25415919 45.67723825 110.04223392 38.42785789 117.4821167 35.7437439 C121.58903809 35.23157538 125.5185229 35.10827002 129.6484375 35.16796875 C131.15243463 35.15154644 132.6563981 35.13173104 134.16030884 35.10871887 C137.30028748 35.07617756 140.43546428 35.09158628 143.57519531 35.14038086 C147.57024475 35.19763459 151.55053414 35.12263793 155.54404831 35.01428032 C181.11354848 34.41573293 181.11354848 34.41573293 187.80175781 40.65478516 C190.98304948 44.45454598 193.06458075 48.45650444 195 53 C196.69444384 54.69444384 198.80173291 54.14395107 201.12109375 54.14453125 C208.47830219 54.08038535 215.7463193 53.42531937 223.0625 52.6875 C223.73654877 52.62097229 224.41059753 52.55444458 225.10507202 52.48590088 C243.05921374 51.6553783 243.05921374 51.6553783 260 47 C260.40726245 45.14588894 260.40726245 45.14588894 260.54296875 42.921875 C261.75737919 32.43879042 261.75737919 32.43879042 264 28 C267.02645474 26.32491 269.55032335 25.68552582 272.9296875 25.08129883 C281.40159201 23.17082712 284.85623854 16.05592185 289.29296875 9.15234375 C289.7211792 8.45101318 290.14938965 7.74968262 290.59057617 7.02709961 C292.17712962 4.74524385 294.01832109 2.94166544 296 1 C295.41507749 9.49990861 294.35937671 17.84483623 293.00390625 26.25390625 C292.81030014 27.47601303 292.61669403 28.69811981 292.41722107 29.95726013 C292.00993052 32.5231834 291.60056455 35.08877802 291.18920898 37.65405273 C290.56378491 41.55448673 289.94440666 45.45584252 289.32617188 49.35742188 C288.92743407 51.86463914 288.52835693 54.37180246 288.12890625 56.87890625 C287.94550186 58.03129288 287.76209747 59.1836795 287.57313538 60.37098694 C287.22388117 62.54704962 286.86749882 64.72198389 286.50296021 66.89553833 C286.16443831 68.98502419 285.85988469 71.08026588 285.58761597 73.17941284 C285.44647369 74.16813385 285.30533142 75.15685486 285.15991211 76.17553711 C285.04787949 77.05124863 284.93584686 77.92696014 284.82041931 78.82920837 C284 81 284 81 281.75245667 82.40870667 C279.3125 83.3125 279.3125 83.3125 276.61328125 84.09765625 C273.11769307 85.30465306 270.99340069 87.2852551 268.375 89.828125 C267 91 267 91 265 91 C264.73316406 91.56976563 264.46632813 92.13953125 264.19140625 92.7265625 C262.94134629 95.11192281 261.51346923 97.19174239 259.9375 99.375 C257.1200385 103.34374454 254.46907521 107.38196531 251.875 111.5 C247.86414841 117.82939381 243.52713542 123.88581842 239.1081543 129.93505859 C232.87592677 138.48873838 226.93117828 147.23599825 221 156 C217.83572104 155.41703883 216.14742654 154.53432863 213.8359375 152.3125 C213.27132812 151.77882813 212.70671875 151.24515625 212.125 150.6953125 C211.5475 150.13585937 210.97 149.57640625 210.375 149 C204.97443285 143.46828045 204.97443285 143.46828045 197.78483582 141.81245422 C196.90055908 141.79662796 196.01628235 141.7808017 195.10520935 141.76449585 C193.64583702 141.74632309 193.64583702 141.74632309 192.15698242 141.7277832 C191.13394012 141.71157425 190.11089783 141.6953653 189.05685425 141.67866516 C179.59052102 141.53810782 170.12324349 141.46025556 160.65609264 141.39974689 C154.2986881 141.35884194 147.94283134 141.29864436 141.58618164 141.19067383 C135.4369388 141.08657944 129.28907426 141.03228438 123.13900185 141.01228905 C120.80225799 140.99641257 118.46556129 140.96331088 116.12932396 140.91213417 C98.73583611 140.54349461 98.73583611 140.54349461 84.46699524 149.45744324 C83.65288681 150.29648697 82.83877838 151.1355307 82 152 C77.45272031 156 77.45272031 156 74 156 C72.22916827 153.61832387 70.67073723 151.27374315 69.125 148.75 C68.13862266 147.18191294 67.15161764 145.61422057 66.1640625 144.046875 C65.6474707 143.21994141 65.13087891 142.39300781 64.59863281 141.54101562 C61.94845176 137.32857145 59.22099483 133.16690283 56.5 129 C55.40061999 127.3101701 54.30165965 125.62006708 53.203125 123.9296875 C52.66751953 123.1056543 52.13191406 122.28162109 51.58007812 121.43261719 C49.13327938 117.66563593 46.69073716 113.89591087 44.25 110.125 C43.80390381 109.43631836 43.35780762 108.74763672 42.89819336 108.03808594 C40.7393337 104.70206455 38.58957628 101.36072523 36.45703125 98.0078125 C36.05258789 97.37343262 35.64814453 96.73905273 35.23144531 96.08544922 C34.14284729 94.37615934 33.05761668 92.66472613 31.97265625 90.953125 C31.32167969 89.97859375 30.67070312 89.0040625 30 88 C29.41347656 87.0925 28.82695312 86.185 28.22265625 85.25 C24.88936572 81.87570238 20.81566631 81.25384967 16.3125 80.32421875 C14.3359375 79.796875 14.3359375 79.796875 11 78 C9.59624461 75.1183919 9.35676082 72.16028732 9 69 C8.6799537 66.94636956 8.35823058 64.893 8.03515625 62.83984375 C7.70679526 60.53965001 7.38276591 58.23883481 7.0625 55.9375 C6.88992676 54.71611328 6.71735352 53.49472656 6.53955078 52.23632812 C5.27041402 43.16804658 4.11388018 34.08833306 3.01074219 24.99853516 C2.28215498 19.05111229 1.44473602 13.15872481 0.33203125 7.26953125 C-0.02660983 4.81811399 -0.05712726 2.47404971 0 0 Z " fill="#FEDC4C" transform="translate(106,229)"/>
<path d="M0 0 C0.81759796 -0.00328308 1.63519592 -0.00656616 2.47756958 -0.00994873 C17.82240119 -0.02985684 32.68168012 1.12122068 47.25 6.3125 C45.87965956 9.21554348 44.29134393 11.7580963 42.4375 14.375 C25.48199931 39.84940516 25.87530741 72.92305165 25.25 102.3125 C9.08 102.3125 -7.09 102.3125 -23.75 102.3125 C-23.87375 98.6 -23.9975 94.8875 -24.125 91.0625 C-25.09602264 46.78438093 -25.09602264 46.78438093 -44.4296875 8.6640625 C-45.75 7.3125 -45.75 7.3125 -45.75 5.3125 C-42.95992842 4.65905186 -40.16823822 4.01465598 -37.375 3.375 C-36.60027344 3.19259766 -35.82554687 3.01019531 -35.02734375 2.82226562 C-23.43390624 0.18739346 -11.83860743 0.03886033 0 0 Z " fill="#F23634" transform="translate(254.75,76.6875)"/>
<path d="M0 0 C0.977341 -0.01460266 1.95468201 -0.02920532 2.9616394 -0.04425049 C12.00969309 -0.17059176 21.05864492 -0.23908007 30.10739708 -0.29209328 C36.18683639 -0.32780075 42.26494658 -0.38095593 48.34375 -0.47753906 C54.21948574 -0.57062035 60.09404673 -0.61905854 65.97047806 -0.63648605 C68.20557421 -0.65054186 70.44063119 -0.68009381 72.67530441 -0.72578812 C92.36045379 -1.10844639 92.36045379 -1.10844639 99.42822266 4.63720703 C100.88532923 6.1448513 102.31401122 7.68109943 103.69775391 9.25634766 C104.34220459 9.75138794 104.98665527 10.24642822 105.65063477 10.75646973 C108.27926177 12.78447665 109.58451276 14.60111433 110.14990234 17.87255859 C110.28860663 20.98378676 110.22214344 24.02098098 110.07275391 27.13134766 C110.03214844 28.73623047 110.03214844 28.73623047 109.99072266 30.37353516 C109.92028442 33.00322919 109.82184823 35.62872985 109.69775391 38.25634766 C105.52157079 38.58276286 101.35247086 38.81569721 97.16723633 38.97045898 C95.75120674 39.03504981 94.33601632 39.12318731 92.9230957 39.23706055 C88.14391952 39.61199769 83.25035643 39.98778337 78.69775391 38.25634766 C76.5061171 36.35525194 74.85291392 34.09249715 73.08837891 31.79931641 C69.02161605 26.817534 65.59151709 24.86497892 59.16333008 24.00952148 C52.54585121 23.51119788 45.94316429 23.50841599 39.31420898 23.67138672 C35.82901097 23.75680424 32.35432672 23.73378794 28.86883736 23.68067455 C12.80912036 22.80409136 12.80912036 22.80409136 -1.09648132 29.26737976 C-2.44118918 30.74107162 -3.71841991 32.27549336 -4.99145508 33.81152344 C-7.75005901 36.73013514 -9.11403578 37.09761909 -13.06787109 37.33056641 C-14.89914257 37.25913383 -16.72909499 37.13033593 -18.55224609 36.94384766 C-19.49970703 36.89421875 -20.44716797 36.84458984 -21.42333984 36.79345703 C-23.72491252 36.66559188 -26.00907283 36.48676065 -28.30224609 36.25634766 C-29.46278297 29.32685138 -30.42498651 22.06329302 -28.30224609 15.25634766 C-24.10662951 9.61771985 -18.03351753 5.88754121 -12.06811523 2.32177734 C-8.0436276 -0.10638027 -4.78990592 0.05413813 0 0 Z " fill="#FCD049" transform="translate(212.30224609375,377.74365234375)"/>
<path d="M0 0 C2.89315614 1.04200191 5.69538426 2.24044203 8.5 3.5 C9.68432617 4.03077148 9.68432617 4.03077148 10.89257812 4.57226562 C22.33401524 9.84511518 32.41695583 16.83371817 42 25 C42.79664063 25.65097656 43.59328125 26.30195312 44.4140625 26.97265625 C62.08711206 41.98072215 79.20282006 67.69480809 83 91 C82.505 92.485 82.505 92.485 82 94 C81.48953125 93.09121094 81.48953125 93.09121094 80.96875 92.1640625 C69.11354711 71.66969579 53.49380231 58.56498372 30.59765625 52.34765625 C20.37133539 50.97902083 8.91884564 51.10852839 -1 54 C-1.73992187 54.18304688 -2.47984375 54.36609375 -3.2421875 54.5546875 C-13.04846004 57.30315835 -20.11158663 63.5731195 -26.50390625 71.27734375 C-26.99761719 71.84582031 -27.49132812 72.41429687 -28 73 C-28.33 73 -28.66 73 -29 73 C-29.15839794 65.67321542 -28.7905452 58.62732452 -27.75 51.375 C-27.61577637 50.42641113 -27.48155273 49.47782227 -27.34326172 48.50048828 C-24.73463374 30.83363689 -21.36982533 13.17670728 -8.16015625 0.19140625 C-5.01588429 -1.5427763 -3.43850885 -0.9496834 0 0 Z " fill="#F13634" transform="translate(317,88)"/>
<path d="M0 0 C11.26610875 7.58093299 15.66036974 25.08942469 18.22265625 37.640625 C20.53712402 50.06300475 21.33504024 62.3801511 21 75 C18.42722715 72.49405242 16.11503069 69.92785247 13.875 67.125 C6.64674985 58.86633972 -3.0343405 54.84355938 -13.84716797 53.69848633 C-16.75954542 53.56324202 -19.64719148 53.5318956 -22.5625 53.5625 C-24.12786499 53.57603516 -24.12786499 53.57603516 -25.72485352 53.58984375 C-46.10379207 54.03913827 -64.6788035 60.29156103 -80 74 C-81.66024165 75.34132517 -83.32536574 76.67668762 -85 78 C-77.66314325 50.60906812 -53.85859543 25.70166205 -30.19775391 11.25830078 C-9.07624314 -0.83459707 -9.07624314 -0.83459707 0 0 Z " fill="#F13634" transform="translate(201,86)"/>
<path d="M0 0 C1.04796218 0.84643099 2.08792692 1.70276192 3.125 2.5625 C3.70507812 3.03816406 4.28515625 3.51382812 4.8828125 4.00390625 C7 6 7 6 8.04931641 7.73730469 C10.35513768 11.26236844 12.01270648 12.77072867 16.19287109 13.74145508 C19.50460599 14.03168975 22.71886196 14.16431486 26.03808594 14.13232422 C28.10551976 14.12506837 30.15383512 14.21316066 32.21875 14.30859375 C37.79549253 14.40907636 42.37475004 14.48884584 46.70239258 10.52441406 C47.55212646 9.5340918 48.40186035 8.54376953 49.27734375 7.5234375 C53.96724799 2.26629087 58.2796639 1.18157984 65.22619629 0.61282349 C70.05277881 0.41526586 74.85985077 0.38122742 79.68969727 0.45605469 C83.43029784 0.49991555 87.15323676 0.41572017 90.89257812 0.3203125 C109.69108484 0.19008787 109.69108484 0.19008787 114.91674805 4.94726562 C116.50414099 6.67594359 117.95012019 8.4661977 119.39575195 10.31420898 C122.88135682 14.54265742 125.49733439 15.90315371 130.96711731 16.52648926 C134.42329665 16.70165986 137.84334953 16.70981138 141.30151367 16.58496094 C143.9374309 16.50000223 146.54931871 16.54353155 149.18554688 16.6015625 C162.05601593 16.58703003 168.84069196 12.78127593 178 4 C178.33 4 178.66 4 179 4 C179.50015625 7.45246748 179.6457474 10.55937711 179 14 C176.76607652 16.94365959 173.95684766 18.82343159 171 21 C170.50547836 21.55466729 170.01095673 22.10933458 169.50144958 22.68080997 C165.47960563 26.94050424 162.42321131 28.49228128 156.54907227 28.89561462 C153.96520396 28.94019185 151.39884535 28.94753804 148.81640625 28.92163086 C147.38977569 28.93276913 145.96316562 28.94686242 144.53659058 28.96366882 C140.68087595 28.99970169 136.82644733 28.99164233 132.97065353 28.9732101 C129.74496955 28.96200351 126.51951605 28.97296593 123.29384327 28.98398215 C115.68167809 29.00980159 108.07013075 29.0003158 100.45800781 28.9675293 C92.61854356 28.93427629 84.78059195 28.95541752 76.94124317 29.00423139 C70.19609352 29.04460182 63.45140772 29.05371736 56.70615673 29.03740031 C52.683774 29.02781825 48.66221953 29.02928641 44.6399231 29.05979729 C40.85691358 29.08691677 37.07598111 29.07472137 33.29312515 29.03291512 C31.90969932 29.0239779 30.52610714 29.02848972 29.14278793 29.04785156 C18.72480738 29.18141567 18.72480738 29.18141567 14.42700195 26.23761177 C12.41994515 24.25440983 10.69410428 22.2519648 9 20 C8.26007813 19.18789063 7.52015625 18.37578125 6.7578125 17.5390625 C6.21898437 16.90742188 5.68015625 16.27578125 5.125 15.625 C3.45806507 13.67895038 1.81296709 11.81296709 0 10 C-0.1953125 7.6171875 -0.1953125 7.6171875 -0.125 4.875 C-0.10695312 3.96492188 -0.08890625 3.05484375 -0.0703125 2.1171875 C-0.04710937 1.41851562 -0.02390625 0.71984375 0 0 Z " fill="#EE3634" transform="translate(164,408)"/>
<path d="M0 0 C2.23046875 0.12109375 2.23046875 0.12109375 5 1 C6.69298234 3.02124462 7.97777082 4.82345328 9.3125 7.0625 C9.69494873 7.68229736 10.07739746 8.30209473 10.47143555 8.94067383 C13.28226219 13.58522747 15.85681737 18.34693236 18.3125 23.1875 C18.62550049 23.80310791 18.93850098 24.41871582 19.26098633 25.05297852 C23.91512394 34.5413578 26.79406044 44.42368518 29.1875 54.6875 C29.57711914 56.30108398 29.57711914 56.30108398 29.97460938 57.94726562 C31.80378495 65.66572484 33.16209619 73.03230493 33.0625 81 C33.05347656 81.94875 33.04445312 82.8975 33.03515625 83.875 C33.02355469 84.57625 33.01195312 85.2775 33 86 C28.34694444 83.51954316 24.8401703 80.23594857 21.0625 76.625 C17.65368359 73.38976362 14.26841548 70.17799182 10.62109375 67.2109375 C6.60381741 63.82229606 6.71455777 61.33278254 6.1328125 56.2109375 C6.05346466 55.52340897 5.97411682 54.83588043 5.8923645 54.1275177 C5.63320653 51.87705064 5.37910917 49.62604222 5.125 47.375 C4.7699509 44.27454066 4.41239365 41.17437252 4.0546875 38.07421875 C3.96582275 37.30110855 3.87695801 36.52799835 3.78540039 35.73146057 C2.88098433 27.89534288 1.89190215 20.07033851 0.86376953 12.24951172 C0.74888184 11.35635254 0.63399414 10.46319336 0.515625 9.54296875 C0.41540039 8.78008545 0.31517578 8.01720215 0.21191406 7.23120117 C-0.01814643 4.8089398 -0.03536268 2.43172029 0 0 Z " fill="#F03634" transform="translate(123,317)"/>
<path d="M0 0 C0.14309084 7.30944704 -0.27998748 14.46534487 -0.98828125 21.73828125 C-1.09214645 22.82207565 -1.19601166 23.90587006 -1.30302429 25.02250671 C-1.52316002 27.29594474 -1.74600208 29.5691222 -1.97143555 31.84204102 C-2.31311399 35.31874755 -2.6362512 38.79688083 -2.95898438 42.27539062 C-3.17594731 44.49229897 -3.39400791 46.70910023 -3.61328125 48.92578125 C-3.70716629 49.96229324 -3.80105133 50.99880524 -3.89778137 52.06672668 C-4.52990299 58.19561344 -5.29641881 62.3212726 -9.8059082 66.78930664 C-10.46421631 67.32418701 -11.12252441 67.85906738 -11.80078125 68.41015625 C-12.53103516 69.00763672 -13.26128906 69.60511719 -14.01367188 70.22070312 C-14.77228516 70.82849609 -15.53089844 71.43628906 -16.3125 72.0625 C-17.43301758 72.97999023 -17.43301758 72.97999023 -18.57617188 73.91601562 C-22.59073749 77.17630816 -26.63901215 80.21978358 -31 83 C-31.83205959 57.54513993 -24.78033477 24.29816823 -7 5 C-6.51273437 4.45730469 -6.02546875 3.91460937 -5.5234375 3.35546875 C-2.36208678 0 -2.36208678 0 0 0 Z " fill="#F03634" transform="translate(383,322)"/>
<path d="M0 0 C1.43931117 0.45261358 2.87638999 0.91232979 4.3125 1.375 C5.11300781 1.63023437 5.91351563 1.88546875 6.73828125 2.1484375 C9 3 9 3 12 5 C9.74924818 21.7433977 6.93283664 38.36513608 4 55 C-1.61 55 -7.22 55 -13 55 C-13 54.01 -13 53.02 -13 52 C-12.38125 51.814375 -11.7625 51.62875 -11.125 51.4375 C-8.02313965 49.3391827 -7.76033579 46.49052244 -7 43 C-6.435137 39.76053193 -5.99273865 36.50976879 -5.5625 33.25 C-5.30711097 31.39307459 -5.05057348 29.53630683 -4.79296875 27.6796875 C-4.66325684 26.74092773 -4.53354492 25.80216797 -4.39990234 24.83496094 C-3.76609336 20.34180468 -3.07788626 15.85780402 -2.375 11.375 C-2.2519751 10.57610352 -2.1289502 9.77720703 -2.00219727 8.95410156 C-1.51506982 5.8652631 -0.99083093 2.97249279 0 0 Z " fill="#F03634" transform="translate(405,265)"/>
<path d="M0 0 C-0.33 3.3 -0.66 6.6 -1 10 C-11.65206895 13.89116674 -23.64614277 14.11004398 -34.875 15.125 C-35.8249585 15.21265625 -36.77491699 15.3003125 -37.75366211 15.390625 C-40.50135791 15.62820142 -43.24752401 15.82688518 -46 16 C-46.92119629 16.06268066 -47.84239258 16.12536133 -48.79150391 16.18994141 C-55.3823937 16.45319234 -55.3823937 16.45319234 -58.2890625 14.3203125 C-58.72992188 13.59585937 -59.17078125 12.87140625 -59.625 12.125 C-60.09164063 11.40570313 -60.55828125 10.68640625 -61.0390625 9.9453125 C-62 8 -62 8 -62 6 C-61.4237085 5.95512451 -60.84741699 5.91024902 -60.25366211 5.86401367 C-44.14414719 4.58865722 -28.13035247 2.8472618 -12.15234375 0.4140625 C-8.04996537 -0.1247877 -4.13354455 -0.06359299 0 0 Z " fill="#F8F8F8" transform="translate(361,260)"/>
<path d="M0 0 C1.11246094 0.17015625 2.22492188 0.3403125 3.37109375 0.515625 C23.16303435 3.42189164 43.08885014 5.13644393 63 7 C62.02223933 8.48009643 61.0427506 9.95905144 60.0625 11.4375 C59.24458984 12.67306641 59.24458984 12.67306641 58.41015625 13.93359375 C57 16 57 16 56 17 C52.96253098 17.01567321 49.97003677 16.94675154 46.9375 16.8125 C45.99116699 16.77133057 45.04483398 16.73016113 44.06982422 16.68774414 C29.97380078 15.9361498 15.97872495 13.89731986 2 12 C0.76113708 7.85907629 -0.26311551 4.34140593 0 0 Z " fill="#F9F9F9" transform="translate(147,259)"/>
<path d="M0 0 C0.85623295 6.08699646 1.71068792 12.17423879 2.56347656 18.26171875 C2.85399981 20.33372795 3.14501378 22.40566841 3.43652344 24.47753906 C3.85479885 27.4509935 4.27132432 30.42468854 4.6875 33.3984375 C4.81874268 34.32868744 4.94998535 35.25893738 5.08520508 36.21737671 C5.26539185 37.50848862 5.26539185 37.50848862 5.44921875 38.82568359 C5.55580811 39.58513275 5.66239746 40.34458191 5.7722168 41.12704468 C6 43 6 43 6 45 C7.65 45.66 9.3 46.32 11 47 C11 48.65 11 50.3 11 52 C7.04 52 3.08 52 -1 52 C-2.16808132 45.38150602 -3.32544915 38.76126202 -4.47290039 32.13916016 C-4.86481047 29.8863669 -5.25965049 27.63408132 -5.6574707 25.38232422 C-6.22857192 22.14679697 -6.78913351 18.90959414 -7.34765625 15.671875 C-7.52780777 14.66445251 -7.70795929 13.65703003 -7.89356995 12.61907959 C-8.05381149 11.67840637 -8.21405304 10.73773315 -8.37915039 9.76855469 C-8.59566002 8.52945343 -8.59566002 8.52945343 -8.81654358 7.26531982 C-9.00984342 4.87845344 -8.82015174 3.24380158 -8 1 C-4.99629127 -1.17509943 -3.43900285 -1.00214129 0 0 Z " fill="#EE3634" transform="translate(104,268)"/>
<path d="M0 0 C1.59769178 4.07943968 0.4609723 7.92845139 -0.375 12.0625 C-1.39997907 17.15447079 -2.04647247 21.65967823 -1.8125 26.875 C-2.03714512 30.82753982 -3.30096794 32.53308929 -6.13671875 35.11328125 C-15.68659785 43 -15.68659785 43 -18 43 C-19.78316459 31.28206124 -18.35467278 23.85730155 -11.25 14.1875 C-8.90013651 11.06670904 -6.48100781 8.0171828 -4 5 C-3.19046875 3.98550781 -2.3809375 2.97101563 -1.546875 1.92578125 C-1.03640625 1.29027344 -0.5259375 0.65476562 0 0 Z " fill="#F9CD49" transform="translate(348,368)"/>
<path d="M0 0 C1.34444623 1.65771526 2.67407774 3.3274314 4 5 C4.48017578 5.60263672 4.96035156 6.20527344 5.45507812 6.82617188 C13.17433902 16.72885325 17.59805629 24.14670604 16.421875 36.9140625 C16.28265625 37.93242187 16.1434375 38.95078125 16 40 C14.93513145 39.10698344 13.87324959 38.2104053 12.8125 37.3125 C12.22082031 36.81363281 11.62914062 36.31476563 11.01953125 35.80078125 C10.35308594 35.20652344 9.68664062 34.61226563 9 34 C8.13246094 33.34257812 7.26492187 32.68515625 6.37109375 32.0078125 C2.8523514 27.54416899 2.77154612 23.10827374 2.25 17.5625 C2.02656798 15.52207772 1.80262459 13.48171135 1.578125 11.44140625 C1.48080078 10.49410645 1.38347656 9.54680664 1.28320312 8.57080078 C0.96603733 5.69170097 0.52757927 2.84795105 0 0 Z " fill="#F6CB48" transform="translate(159,367)"/>
</svg>
